<?xml version="1.0" standalone="no"?>
<!DOCTYPE svg PUBLIC "-//W3C//DTD SVG 20010904//EN"
 "http://www.w3.org/TR/2001/REC-SVG-20010904/DTD/svg10.dtd">
<svg version="1.0" xmlns="http://www.w3.org/2000/svg"
 width="512.000000pt" height="512.000000pt" viewBox="0 0 512.000000 512.000000"
 preserveAspectRatio="xMidYMid meet">
<metadata>
Created by potrace 1.14, written by Peter Selinger 2001-2017
</metadata>
<g transform="translate(0.000000,512.000000) scale(0.100000,-0.100000)"
fill="#000000" stroke="none">
<path d="M3332 4490 c-165 -17 -336 -70 -496 -153 -160 -83 -391 -266 -499
-395 l-58 -70 -82 -7 c-350 -29 -436 -51 -652 -167 -206 -111 -375 -236 -530
-392 -155 -156 -289 -362 -421 -647 -102 -221 -113 -251 -130 -344 -22 -119
-11 -355 22 -453 32 -96 71 -172 129 -251 l47 -64 -17 -66 c-23 -86 -32 -366
-16 -470 18 -114 77 -231 159 -314 108 -110 306 -220 523 -291 237 -77 765
-98 1043 -41 156 32 255 68 460 166 307 146 478 270 622 451 123 154 118 147
323 483 101 165 216 352 256 415 123 195 169 300 185 425 9 75 -2 209 -20 230
-6 7 -7 20 -4 30 4 9 7 26 8 38 1 12 7 21 12 20 6 -1 17 9 24 22 7 14 18 25
24 25 11 1 104 153 164 270 31 59 32 62 8 35 -18 -21 -12 -6 19 50 56 100 100
204 127 303 28 103 31 350 6 462 -26 117 -57 191 -95 228 -19 17 -29 32 -23
32 18 0 -4 30 -89 122 -124 132 -259 211 -451 265 -178 49 -410 71 -578 53z
m223 -70 c66 -6 149 -19 185 -29 36 -10 79 -22 95 -25 63 -15 191 -72 260
-116 63 -42 180 -159 180 -180 0 -18 18 -24 73 -24 31 -1 57 -5 57 -11 0 -5
-11 -10 -25 -11 -34 0 -107 -22 -152 -45 -32 -16 -38 -24 -38 -52 1 -37 18
-63 50 -75 l23 -9 -20 -20 c-14 -14 -18 -25 -12 -34 7 -11 9 -10 9 4 0 13 6
17 23 15 35 -5 29 -64 -12 -107 -18 -19 -41 -51 -51 -70 -10 -20 -45 -70 -78
-111 -58 -74 -89 -138 -79 -164 3 -7 1 -19 -4 -27 -7 -12 -9 -12 -9 1 0 11 -3
11 -12 2 -7 -7 -18 -12 -26 -12 -17 0 -68 -39 -63 -48 2 -4 -6 -12 -18 -18
-13 -7 -37 -25 -54 -41 -18 -17 -48 -40 -67 -54 -19 -13 -47 -36 -61 -51 -29
-30 -108 -70 -148 -74 -13 -2 -28 -7 -34 -13 -6 -6 -15 -5 -25 5 -8 8 -13 16
-11 18 2 2 36 24 74 50 179 119 334 255 341 301 1 6 18 27 38 48 20 21 34 42
32 46 -5 7 28 41 40 41 3 0 3 -7 0 -16 -3 -8 -2 -12 4 -9 6 3 10 13 10 21 0 9
10 24 22 34 25 20 32 66 12 74 -8 3 -19 -4 -25 -15 -6 -11 -13 -18 -16 -15 -3
3 -16 -14 -28 -37 -13 -23 -36 -49 -53 -59 -16 -9 -51 -39 -76 -66 -33 -35
-57 -52 -82 -57 -19 -3 -37 -12 -40 -19 -3 -8 -14 -12 -27 -9 -17 4 -19 3 -7
-6 8 -5 11 -13 7 -17 -3 -4 -13 -1 -22 6 -12 10 -15 10 -15 0 0 -14 -67 -75
-82 -75 -5 0 -12 -5 -16 -11 -14 -21 -41 -24 -51 -5 -6 10 -8 21 -5 24 3 3 1
8 -5 12 -6 3 -11 2 -11 -2 0 -5 -11 -10 -25 -11 -31 -2 -32 8 -2 33 20 18 20
20 4 23 -11 2 -16 9 -13 18 6 15 -6 19 -18 7 -3 -4 -21 -7 -39 -8 -17 0 -38
-4 -44 -8 -28 -18 -10 17 32 62 30 32 45 57 45 75 0 15 4 25 9 22 5 -3 14 1
21 9 7 8 9 15 4 15 -4 0 0 6 11 13 10 8 15 19 12 24 -10 16 21 39 34 26 7 -7
19 -3 36 13 15 13 28 22 31 20 2 -3 14 4 25 15 16 15 18 22 9 31 -16 16 -15
56 2 73 7 8 15 12 18 10 2 -2 5 6 5 18 1 12 12 30 25 41 12 10 23 23 24 30 0
6 2 16 2 23 1 7 9 10 17 7 10 -4 18 4 26 23 6 15 17 40 24 56 15 28 8 36 -13
15 -10 -10 -12 -8 -9 11 2 14 13 28 24 32 17 6 20 4 16 -11 -3 -10 0 -21 6
-24 5 -4 8 -13 5 -20 -4 -10 2 -12 23 -8 25 5 27 4 14 -12 -12 -14 -12 -19 -1
-29 9 -8 11 -9 6 0 -3 6 0 18 8 26 11 11 12 17 3 27 -9 10 -9 11 1 6 7 -5 12
-1 12 9 0 9 4 14 9 11 4 -3 19 3 32 15 12 11 29 17 36 15 7 -3 12 0 10 7 -1 7
10 13 26 15 21 3 27 9 27 28 0 15 6 24 15 24 19 0 19 11 0 36 -19 25 -19 35 0
28 27 -11 17 26 -15 54 -94 83 -311 173 -473 198 -119 18 -286 11 -404 -16
-86 -20 -183 -69 -377 -187 -90 -56 -152 -108 -232 -195 -48 -52 -133 -166
-154 -208 -11 -21 -33 -58 -48 -82 -16 -24 -37 -60 -47 -80 -9 -21 -22 -38
-27 -38 -5 0 -8 3 -6 8 10 21 40 86 71 152 19 41 47 94 63 117 74 107 304 315
435 393 98 58 301 138 379 150 36 5 90 14 120 19 30 5 64 7 75 5 11 -2 74 -9
140 -14z m-272 -566 c10 -14 22 -22 26 -19 5 2 15 -1 24 -8 24 -18 11 -49 -29
-69 -32 -16 -38 -17 -72 -3 -41 18 -72 43 -72 59 0 6 14 26 30 44 34 38 61 36
93 -4z m-1058 -23 c19 -8 -158 -4 -180 4 -5 2 28 3 75 4 47 0 94 -4 105 -8z
m-30 -61 c-10 -11 -22 -20 -28 -20 -5 0 1 9 14 20 31 25 37 25 14 0z m-45 -34
c0 -2 -8 -10 -17 -17 -16 -13 -17 -12 -4 4 13 16 21 21 21 13z m124 -171 c-4
-8 -10 -12 -15 -9 -11 6 -2 24 11 24 5 0 7 -7 4 -15z m-25 -47 c-9 -16 -14
-19 -17 -9 -2 7 2 17 9 22 20 13 21 11 8 -13z m1751 -212 c0 -3 -4 -8 -10 -11
-5 -3 -10 -1 -10 4 0 6 5 11 10 11 6 0 10 -2 10 -4z m-647 -48 c-18 -35 -122
-132 -132 -122 -3 3 -1 8 5 12 6 4 25 29 43 55 26 38 81 87 98 87 2 0 -5 -15
-14 -32z m-190 -198 c-5 -19 -28 -46 -74 -85 -13 -12 -39 -42 -56 -68 -18 -26
-38 -47 -44 -47 -8 0 -6 7 4 18 10 10 17 24 17 31 0 10 147 170 157 171 0 0
-1 -9 -4 -20z m-218 -254 c-17 -25 -52 -46 -39 -23 13 22 37 47 46 47 5 0 1
-11 -7 -24z m-71 -77 c-25 -29 -124 -92 -131 -85 -4 3 -1 6 5 6 7 0 12 6 12
14 0 12 25 32 100 78 32 20 38 14 14 -13z m1342 -36 c-10 -10 -19 5 -10 18 6
11 8 11 12 0 2 -7 1 -15 -2 -18z m-1657 -216 c-60 -55 -203 -140 -254 -150
-29 -6 -29 -6 5 10 134 63 165 83 217 135 32 32 64 58 73 58 8 -1 -9 -23 -41
-53z m1382 -37 c13 -8 19 -21 19 -47 0 -35 -1 -36 -15 -17 -8 10 -15 14 -15 8
0 -6 -6 -11 -14 -11 -8 0 -13 8 -11 18 4 20 -26 31 -46 18 -21 -13 -46 -11
-52 5 -4 9 -1 13 6 10 7 -2 30 2 52 10 50 18 52 18 76 6z m-437 -71 c15 -18
24 -20 59 -13 23 4 56 8 74 8 18 0 30 3 28 7 -3 4 1 9 9 12 13 5 36 -10 36
-24 0 -15 -70 -30 -167 -35 -104 -5 -118 -1 -88 30 8 8 15 19 15 25 0 17 14
13 34 -10z m-1245 -53 c-2 -2 -20 -6 -39 -10 -25 -4 -31 -3 -20 4 14 9 69 15
59 6z m1341 -20 c0 -2 -11 -6 -25 -8 -13 -3 -22 -1 -19 3 5 9 44 13 44 5z
m-259 -53 c13 -15 17 -22 8 -15 -9 6 -38 15 -65 19 -36 5 -43 8 -29 14 37 14
61 9 86 -18z m435 12 c6 -16 -35 -149 -43 -141 -3 3 0 25 7 50 14 53 6 91 -18
81 -10 -4 -32 -9 -51 -11 -29 -4 -32 -2 -22 10 11 14 38 20 99 24 12 1 25 -5
28 -13z m-1286 -70 c29 -31 29 -31 -45 0 l-60 25 41 0 c30 0 46 -6 64 -25z
m961 -13 c-7 -2 -18 1 -23 6 -8 8 -4 9 13 5 13 -4 18 -8 10 -11z m241 -144
c-11 -18 -43 -76 -72 -128 -54 -100 -76 -129 -125 -162 -16 -12 -9 -1 18 23
33 31 66 79 108 159 34 63 66 121 71 128 20 24 19 12 0 -20z m-1062 12 c0 -5
-10 -10 -22 -10 -19 0 -20 2 -8 10 19 13 30 13 30 0z m855 -340 c-3 -5 -20
-19 -38 -30 -32 -22 -32 -22 3 9 37 32 45 37 35 21z m-96 -76 c-13 -14 -37
-32 -54 -40 -17 -8 -22 -9 -11 -2 11 7 33 25 50 40 39 35 47 36 15 2z m-1356
-281 c-7 -2 -19 -2 -25 0 -7 3 -2 5 12 5 14 0 19 -2 13 -5z m417 -23 c-14 -4
-34 -8 -45 -8 l-20 -1 20 9 c11 5 31 8 45 8 l25 0 -25 -8z m-997 -27 c-7 -2
-19 -2 -25 0 -7 3 -2 5 12 5 14 0 19 -2 13 -5z m820 0 c-7 -2 -19 -2 -25 0 -7
3 -2 5 12 5 14 0 19 -2 13 -5z m-946 -23 l-26 -21 19 -32 c11 -18 20 -48 20
-67 -1 -33 -1 -34 -15 -16 -8 11 -13 28 -9 38 3 10 -3 27 -15 40 -12 12 -21
27 -21 32 0 20 18 39 29 32 6 -4 11 -2 11 3 0 6 7 11 16 11 12 0 10 -5 -9 -20z
m876 13 c-13 -2 -33 -2 -45 0 -13 2 -3 4 22 4 25 0 35 -2 23 -4z m-130 -10
c-7 -2 -19 -2 -25 0 -7 3 -2 5 12 5 14 0 19 -2 13 -5z m-376 -219 c-3 -3 -12
-4 -19 -1 -8 3 -5 6 6 6 11 1 17 -2 13 -5z m553 -10 c-149 -19 -410 -28 -440
-16 -18 7 20 10 140 11 91 1 194 5 230 10 36 5 90 8 120 8 41 0 28 -3 -50 -13z
m-477 -1 c-7 -2 -19 -2 -25 0 -7 3 -2 5 12 5 14 0 19 -2 13 -5z"/>
<path d="M4110 4104 c0 -8 5 -12 10 -9 6 4 8 11 5 16 -9 14 -15 11 -15 -7z"/>
<path d="M4216 4025 c-17 -13 -18 -17 -6 -28 10 -10 11 -9 5 2 -6 10 -4 13 6
9 8 -2 22 4 32 14 16 17 16 18 0 18 -10 0 -27 -7 -37 -15z"/>
<path d="M4076 3545 c-16 -12 -17 -15 -4 -15 9 0 18 7 22 15 7 18 6 18 -18 0z"/>
<path d="M4007 3366 c-4 -10 -1 -13 9 -9 7 3 14 9 14 14 0 14 -17 10 -23 -5z"/>
</g>
</svg>
